<?xml version="1.0" encoding="UTF-8" standalone="no"?><svg xmlns="http://www.w3.org/2000/svg" xmlns:xlink="http://www.w3.org/1999/xlink" contentScriptType="application/ecmascript" contentStyleType="text/css" height="272px" preserveAspectRatio="none" style="width:414px;height:272px;background:#FFFFFF;" version="1.1" viewBox="0 0 414 272" width="414px" zoomAndPan="magnify"><defs><filter height="300%" id="f4ekt6aeg7woc" width="300%" x="-1" y="-1"><feGaussianBlur result="blurOut" stdDeviation="2.0"/><feColorMatrix in="blurOut" result="blurOut2" type="matrix" values="0 0 0 0 0 0 0 0 0 0 0 0 0 0 0 0 0 0 .4 0"/><feOffset dx="4.0" dy="4.0" in="blurOut2" result="blurOut3"/><feBlend in="SourceGraphic" in2="blurOut3" mode="normal"/></filter></defs><g><rect fill="#FFFFFF" filter="url(#f4ekt6aeg7woc)" height="35.1328" style="stroke:#A80036;stroke-width:1.0;" width="10" x="51.5" y="168.8281"/><rect fill="#FFFFFF" filter="url(#f4ekt6aeg7woc)" height="68.2656" style="stroke:#A80036;stroke-width:1.0;" width="10" x="247.5" y="100.5625"/><line style="stroke:#A80036;stroke-width:1.0;stroke-dasharray:5.0,5.0;" x1="56" x2="56" y1="40.2969" y2="228.9609"/><line style="stroke:#A80036;stroke-width:1.0;stroke-dasharray:5.0,5.0;" x1="252.5" x2="252.5" y1="40.2969" y2="228.9609"/><rect fill="#FEFECE" filter="url(#f4ekt6aeg7woc)" height="30.2969" style="stroke:#A80036;stroke-width:1.5;" width="99" x="5" y="5"/><text fill="#000000" font-family="sans-serif" font-size="14" lengthAdjust="spacing" textLength="85" x="12" y="24.9951">APP_Module</text><rect fill="#FEFECE" filter="url(#f4ekt6aeg7woc)" height="30.2969" style="stroke:#A80036;stroke-width:1.5;" width="99" x="5" y="227.9609"/><text fill="#000000" font-family="sans-serif" font-size="14" lengthAdjust="spacing" textLength="85" x="12" y="247.9561">APP_Module</text><rect fill="#FEFECE" filter="url(#f4ekt6aeg7woc)" height="30.2969" style="stroke:#A80036;stroke-width:1.5;" width="58" x="221.5" y="5"/><text fill="#000000" font-family="sans-serif" font-size="14" lengthAdjust="spacing" textLength="44" x="228.5" y="24.9951">Server</text><rect fill="#FEFECE" filter="url(#f4ekt6aeg7woc)" height="30.2969" style="stroke:#A80036;stroke-width:1.5;" width="58" x="221.5" y="227.9609"/><text fill="#000000" font-family="sans-serif" font-size="14" lengthAdjust="spacing" textLength="44" x="228.5" y="247.9561">Server</text><rect fill="#FFFFFF" filter="url(#f4ekt6aeg7woc)" height="35.1328" style="stroke:#A80036;stroke-width:1.0;" width="10" x="51.5" y="168.8281"/><rect fill="#FFFFFF" filter="url(#f4ekt6aeg7woc)" height="68.2656" style="stroke:#A80036;stroke-width:1.0;" width="10" x="247.5" y="100.5625"/><polygon fill="#A80036" points="240.5,67.4297,250.5,71.4297,240.5,75.4297,244.5,71.4297" style="stroke:#A80036;stroke-width:1.0;"/><line style="stroke:#A80036;stroke-width:1.0;" x1="56.5" x2="246.5" y1="71.4297" y2="71.4297"/><text fill="#000000" font-family="sans-serif" font-size="13" font-weight="bold" lengthAdjust="spacing" textLength="9" x="63.5" y="66.3638">1</text><text fill="#000000" font-family="sans-serif" font-size="13" lengthAdjust="spacing" textLength="61" x="76.5" y="66.3638">xxx_init();</text><polygon fill="#A80036" points="235.5,96.5625,245.5,100.5625,235.5,104.5625,239.5,100.5625" style="stroke:#A80036;stroke-width:1.0;"/><line style="stroke:#A80036;stroke-width:1.0;" x1="56.5" x2="241.5" y1="100.5625" y2="100.5625"/><text fill="#000000" font-family="sans-serif" font-size="13" font-weight="bold" lengthAdjust="spacing" textLength="9" x="63.5" y="95.4966">2</text><text fill="#000000" font-family="sans-serif" font-size="13" lengthAdjust="spacing" textLength="145" x="76.5" y="95.4966">xxx_register(event_cb)</text><path d="M262,113.5625 L262,138.5625 L405,138.5625 L405,123.5625 L395,113.5625 L262,113.5625 " fill="#FBFB77" filter="url(#f4ekt6aeg7woc)" style="stroke:#A80036;stroke-width:1.0;"/><path d="M395,113.5625 L395,123.5625 L405,123.5625 L395,113.5625 " fill="#FBFB77" style="stroke:#A80036;stroke-width:1.0;"/><text fill="#000000" font-family="sans-serif" font-size="13" lengthAdjust="spacing" textLength="122" x="268" y="130.6294">Something happen</text><polygon fill="#A80036" points="72.5,164.8281,62.5,168.8281,72.5,172.8281,68.5,168.8281" style="stroke:#A80036;stroke-width:1.0;"/><line style="stroke:#A80036;stroke-width:1.0;" x1="66.5" x2="251.5" y1="168.8281" y2="168.8281"/><text fill="#000000" font-family="sans-serif" font-size="13" font-weight="bold" lengthAdjust="spacing" textLength="9" x="78.5" y="163.7622">3</text><text fill="#000000" font-family="sans-serif" font-size="13" lengthAdjust="spacing" textLength="154" x="91.5" y="163.7622">event_cb(event, param)</text><line style="stroke:#A80036;stroke-width:1.0;" x1="61.5" x2="103.5" y1="202.9609" y2="202.9609"/><line style="stroke:#A80036;stroke-width:1.0;" x1="103.5" x2="103.5" y1="202.9609" y2="215.9609"/><line style="stroke:#A80036;stroke-width:1.0;" x1="56.5" x2="103.5" y1="215.9609" y2="215.9609"/><polygon fill="#A80036" points="66.5,211.9609,56.5,215.9609,66.5,219.9609,62.5,215.9609" style="stroke:#A80036;stroke-width:1.0;"/><text fill="#000000" font-family="sans-serif" font-size="13" font-weight="bold" lengthAdjust="spacing" textLength="9" x="68.5" y="197.895">4</text><text fill="#000000" font-family="sans-serif" font-size="13" lengthAdjust="spacing" textLength="90" x="81.5" y="197.895">event process</text></g></svg>